<svg width="48" height="49" viewBox="0 0 48 49" fill="none" xmlns="http://www.w3.org/2000/svg">
<path d="M42.1312 42.6612L43.4625 42.7455L42.8531 41.5643C42.8156 41.4987 39.4219 34.833 38.4187 29.7987C39.2699 30.1362 40.1751 30.3173 41.0906 30.333L42.3937 30.3705L41.775 29.2268C41.7375 29.1424 37.3219 20.9112 36.9469 15.0143C36.3656 7.93616 30.5531 2.17053 24 2.17053C17.4469 2.17053 11.6344 7.93616 11.0344 15.1268C10.6781 20.9112 6.26248 29.1424 6.22498 29.2268L5.60623 30.3705L6.90935 30.333C7.82489 30.3173 8.73005 30.1362 9.58123 29.7987C8.5781 34.833 5.18435 41.4987 5.14685 41.5643L4.53748 42.7549L5.86873 42.6612C9.27185 42.4174 12.2062 40.2893 13.6781 39.0143C14.1562 41.808 13.7625 44.7893 13.7625 44.8268L13.6031 46.0362L14.7562 45.633C17.3812 44.7143 19.0969 41.2174 20.0062 38.733C20.1293 39.3206 20.2138 39.9157 20.2594 40.5143C20.3906 42.6705 23.1844 45.2018 23.5031 45.483L24 45.9237L24.4969 45.483C24.8156 45.2018 27.6094 42.6705 27.7406 40.5143C27.7861 39.9157 27.8707 39.3206 27.9937 38.733C28.9031 41.2174 30.6187 44.7143 33.2437 45.633L34.3969 46.0362L34.2375 44.8268C34.2375 44.7893 33.8437 41.808 34.3219 39.0143C35.7937 40.2893 38.7281 42.4174 42.1312 42.6612ZM28.8562 20.5362C28.4039 20.9195 27.9721 21.3263 27.5625 21.7549C27.6478 21.3971 27.7073 21.0337 27.7406 20.6674L28.8562 20.5362ZM23.1469 26.2174C21.8531 21.7455 21.75 20.6768 21.75 20.4612C21.7502 20.3484 21.7564 20.2357 21.7687 20.1237C21.855 19.5928 22.1264 19.1096 22.5347 18.7595C22.9431 18.4095 23.4621 18.2153 24 18.2112C24.5428 18.2151 25.0661 18.4143 25.4741 18.7723C25.8821 19.1304 26.1475 19.6234 26.2219 20.1612C26.2409 20.26 26.2503 20.3605 26.25 20.4612C26.25 20.7049 26.1375 21.6893 25.0781 25.4768L25.0031 25.7112C24.6656 26.9112 24.3 28.1205 24 29.1049C23.7562 28.2893 23.475 27.333 23.1937 26.3487L23.1469 26.2174ZM18.7594 14.2643C18.695 14.3194 18.6465 14.3905 18.6187 14.4705C18.5756 14.5647 18.5532 14.667 18.5531 14.7705C18.5524 14.8712 18.5749 14.9706 18.6187 15.0612C18.653 15.1506 18.7076 15.2308 18.7781 15.2955C18.8499 15.3644 18.9322 15.4213 19.0219 15.4643C19.2052 15.5388 19.4104 15.5388 19.5937 15.4643C19.6806 15.4213 19.7598 15.3643 19.8281 15.2955C19.8675 15.2582 19.8993 15.2137 19.9219 15.1643C20.2793 15.5744 20.5732 16.0357 20.7937 16.533C20.1562 16.5143 19.0687 16.4299 18.2344 15.8862C17.4 15.3424 16.875 14.4705 16.575 13.8237H16.6125C17.3513 13.8162 18.0832 13.9664 18.7594 14.2643ZM29.9719 15.8862C29.1375 16.4205 28.1437 16.533 27.4031 16.533C27.6271 16.0376 27.9207 15.5767 28.275 15.1643C28.3008 15.2117 28.3323 15.2557 28.3687 15.2955C28.4367 15.3663 28.5182 15.4228 28.6084 15.4614C28.6985 15.5001 28.7956 15.5202 28.8937 15.5205C29.0944 15.5182 29.2862 15.4374 29.4281 15.2955C29.4926 15.2237 29.5491 15.1451 29.5969 15.0612C29.6282 14.9672 29.6471 14.8694 29.6531 14.7705C29.6472 14.6685 29.6283 14.5677 29.5969 14.4705C29.5554 14.3982 29.5084 14.3292 29.4562 14.2643C30.1279 13.9617 30.8571 13.8081 31.5937 13.8143H31.6219C31.3312 14.4705 30.8062 15.3518 29.9719 15.8862ZM20.4469 21.8112C19.9875 21.333 19.5281 20.9018 19.0875 20.5268L20.2687 20.6768C20.3028 21.0584 20.3623 21.4374 20.4469 21.8112Z" fill="white"/>
<path d="M23.1469 26.2174C21.8531 21.7455 21.75 20.6768 21.75 20.4612C21.7502 20.3484 21.7564 20.2357 21.7687 20.1237C21.855 19.5928 22.1264 19.1096 22.5347 18.7595C22.9431 18.4095 23.4621 18.2153 24 18.2112C24.5428 18.2151 25.0661 18.4143 25.4741 18.7723C25.8821 19.1304 26.1475 19.6234 26.2219 20.1612C26.2409 20.26 26.2503 20.3605 26.25 20.4612C26.25 20.7049 26.1375 21.6893 25.0781 25.4768L25.0031 25.7112C24.6656 26.9112 24.3 28.1205 24 29.1049C23.7562 28.2893 23.475 27.333 23.1937 26.3487L23.1469 26.2174Z" fill="#198248"/>
</svg>
