<svg width="139" height="20" viewBox="0 0 139 20" fill="none" xmlns="http://www.w3.org/2000/svg">
<path d="M16.5835 0.000244141H138.154L124.582 20H0L16.5835 0.000244141Z" fill="url(#paint0_linear_1_870)"/>
<path d="M13.5 0H49L36 19.9998H0L13.5 0Z" fill="url(#paint1_linear_1_870)"/>
<g clip-path="url(#clip0_1_870)">
<path d="M25.1413 5.97589L18.6241 14.1767L25.1598 4.45328L25.1413 5.97589Z" fill="white"/>
<path d="M26.9325 12.9273L20.7286 17.7061L26.7083 12.0474L26.9325 12.9273Z" fill="white"/>
<path d="M26.3594 10.9829L19.047 17.544L25.3293 9.90707L26.155 10.1205L26.3594 10.9829Z" fill="white"/>
<path d="M24.3097 9.54274L18.8916 15.7878L23.4673 9.30865L24.3097 9.54274Z" fill="white"/>
<path d="M29.9238 11.1833L31.3817 11.1639L22.4865 17.9999L29.9238 11.1833Z" fill="white"/>
<path d="M26.0907 6.98743L25.9533 3.62506L28.477 5.71757L31.4964 4.54205L30.3709 7.69536L32.3745 10.3311L29.155 10.1876L27.3738 12.9921L26.5097 9.74994L23.4054 8.84754L26.0907 6.98743Z" fill="white"/>
</g>
<path d="M53.87 13.9999V6.92998H56.52C56.9133 6.92998 57.2633 6.96998 57.57 7.04998C57.8833 7.12998 58.1499 7.25664 58.3699 7.42998C58.5899 7.60331 58.7566 7.8333 58.8699 8.11997C58.9899 8.39997 59.0499 8.73996 59.0499 9.13996C59.0499 9.53329 58.9766 9.86995 58.8299 10.1499C58.6833 10.4233 58.4899 10.6466 58.2499 10.8199C58.0099 10.9933 57.75 11.1199 57.47 11.1999L58.9499 13.9999H57.9999L56.59 11.3499H54.74V13.9999H53.87ZM54.74 10.5599H56.24C56.5 10.5599 56.7433 10.5399 56.97 10.4999C57.2033 10.4599 57.4066 10.3899 57.58 10.2899C57.76 10.1833 57.9 10.0366 57.9999 9.84995C58.0999 9.65662 58.1533 9.40995 58.1599 9.10996C58.1666 8.76996 58.1033 8.49996 57.9699 8.29997C57.8366 8.0933 57.64 7.94664 57.38 7.85997C57.12 7.76664 56.8033 7.71997 56.43 7.71997H54.74V10.5599ZM60.252 13.9999V8.72996H61.1019V13.9999H60.252ZM60.672 7.94997C60.4986 7.94997 60.3586 7.89664 60.252 7.78997C60.152 7.68331 60.102 7.54664 60.102 7.37998C60.102 7.21331 60.1553 7.07998 60.262 6.97998C60.3686 6.87331 60.5053 6.81998 60.672 6.81998C60.8253 6.81998 60.9586 6.87331 61.0719 6.97998C61.1919 7.08665 61.2519 7.21998 61.2519 7.37998C61.2519 7.54664 61.1953 7.68331 61.0819 7.78997C60.9686 7.89664 60.832 7.94997 60.672 7.94997ZM64.3594 14.0599C64.1194 14.0599 63.8761 14.0366 63.6294 13.9899C63.3894 13.9432 63.1628 13.8632 62.9494 13.7499C62.7428 13.6366 62.5694 13.4832 62.4294 13.2899C62.2894 13.0966 62.1994 12.8566 62.1594 12.5699H63.0194C63.0861 12.7499 63.1928 12.8966 63.3394 13.0099C63.4928 13.1166 63.6628 13.1932 63.8494 13.2399C64.0428 13.2866 64.2261 13.3099 64.3994 13.3099C64.5061 13.3099 64.6294 13.3032 64.7694 13.2899C64.9094 13.2766 65.0427 13.2466 65.1694 13.1999C65.3027 13.1466 65.4094 13.0699 65.4894 12.9699C65.5761 12.8699 65.6194 12.7299 65.6194 12.5499C65.6194 12.4166 65.5894 12.3066 65.5294 12.2199C65.4694 12.1333 65.3861 12.0633 65.2794 12.0099C65.1727 11.9499 65.0427 11.9066 64.8894 11.8799C64.5761 11.8133 64.2394 11.7499 63.8794 11.6899C63.5261 11.6299 63.2128 11.5166 62.9394 11.3499C62.8461 11.2899 62.7594 11.2233 62.6794 11.1499C62.6061 11.0699 62.5428 10.9833 62.4894 10.8899C62.4361 10.7899 62.3928 10.6833 62.3594 10.5699C62.3328 10.4499 62.3194 10.3199 62.3194 10.1799C62.3194 9.91995 62.3694 9.69662 62.4694 9.50995C62.5761 9.31662 62.7228 9.15996 62.9094 9.03996C63.0961 8.91329 63.3094 8.81996 63.5494 8.75996C63.7961 8.69996 64.0594 8.66996 64.3394 8.66996C64.6861 8.66996 64.9961 8.72663 65.2694 8.83996C65.5494 8.94663 65.7794 9.10662 65.9594 9.31996C66.1394 9.52662 66.2461 9.78328 66.2794 10.0899H65.4894C65.4427 9.89662 65.3161 9.73995 65.1094 9.61995C64.9027 9.49329 64.6394 9.42995 64.3194 9.42995C64.2128 9.42995 64.0928 9.43995 63.9594 9.45995C63.8261 9.47329 63.6994 9.50662 63.5794 9.55995C63.4594 9.60662 63.3594 9.67995 63.2794 9.77995C63.1994 9.87328 63.1594 9.99995 63.1594 10.1599C63.1594 10.3066 63.1961 10.4299 63.2694 10.5299C63.3494 10.6299 63.4594 10.7099 63.5994 10.7699C63.7394 10.8299 63.8994 10.8799 64.0794 10.9199C64.3127 10.9666 64.5694 11.0166 64.8494 11.0699C65.1294 11.1166 65.3494 11.1666 65.5094 11.2199C65.7227 11.2866 65.8994 11.3799 66.0394 11.4999C66.1861 11.6199 66.2927 11.7633 66.3594 11.9299C66.4327 12.0966 66.4694 12.2899 66.4694 12.5099C66.4694 12.8233 66.4061 13.0799 66.2794 13.2799C66.1594 13.4799 65.9961 13.6366 65.7894 13.7499C65.5827 13.8632 65.3527 13.9432 65.0994 13.9899C64.8527 14.0366 64.6061 14.0599 64.3594 14.0599ZM67.5273 13.9999V8.72996H68.3773V13.9999H67.5273ZM67.9473 7.94997C67.7739 7.94997 67.6339 7.89664 67.5273 7.78997C67.4273 7.68331 67.3773 7.54664 67.3773 7.37998C67.3773 7.21331 67.4306 7.07998 67.5373 6.97998C67.6439 6.87331 67.7806 6.81998 67.9473 6.81998C68.1006 6.81998 68.2339 6.87331 68.3473 6.97998C68.4673 7.08665 68.5273 7.21998 68.5273 7.37998C68.5273 7.54664 68.4706 7.68331 68.3573 7.78997C68.2439 7.89664 68.1073 7.94997 67.9473 7.94997ZM69.7148 13.9999V8.72996H70.5347L70.5747 9.52995C70.6947 9.33662 70.8481 9.17662 71.0347 9.04996C71.2214 8.92329 71.4247 8.82996 71.6447 8.76996C71.8714 8.7033 72.0914 8.66996 72.3047 8.66996C72.8181 8.66996 73.218 8.77663 73.5047 8.98996C73.798 9.20329 74.0047 9.49329 74.1247 9.85995C74.2514 10.2199 74.3147 10.6299 74.3147 11.0899V13.9999H73.4647V11.3199C73.4647 11.0733 73.448 10.8366 73.4147 10.6099C73.388 10.3833 73.328 10.1799 73.2347 9.99995C73.148 9.81995 73.0214 9.67995 72.8547 9.57995C72.6881 9.47329 72.4647 9.41995 72.1847 9.41995C71.8381 9.41995 71.5414 9.51662 71.2947 9.70995C71.0547 9.90328 70.8714 10.1633 70.7447 10.4899C70.6247 10.8166 70.5647 11.1833 70.5647 11.5899V13.9999H69.7148ZM77.9129 16.3599C77.5529 16.3599 77.2195 16.3032 76.9129 16.1899C76.6062 16.0832 76.3462 15.9132 76.1329 15.6799C75.9196 15.4466 75.7762 15.1499 75.7029 14.7899H76.5829C76.6362 14.9899 76.7362 15.1499 76.8829 15.2699C77.0295 15.3899 77.1995 15.4732 77.3929 15.5199C77.5862 15.5732 77.7762 15.5999 77.9629 15.5999C78.3229 15.5999 78.6129 15.5266 78.8329 15.3799C79.0595 15.2399 79.2229 15.0432 79.3229 14.7899C79.4229 14.5432 79.4729 14.2599 79.4729 13.9399V13.2099C79.3595 13.4099 79.2095 13.5732 79.0229 13.6999C78.8362 13.8266 78.6329 13.9199 78.4129 13.9799C78.1929 14.0332 77.9662 14.0599 77.7329 14.0599C77.1995 14.0599 76.7629 13.9432 76.4229 13.7099C76.0829 13.4699 75.8296 13.1499 75.6629 12.7499C75.5029 12.3433 75.4229 11.8866 75.4229 11.3799C75.4229 10.8733 75.5062 10.4166 75.6729 10.0099C75.8396 9.59662 76.0962 9.26996 76.4429 9.02996C76.7895 8.78996 77.2329 8.66996 77.7729 8.66996C78.0795 8.66996 78.3895 8.72663 78.7029 8.83996C79.0162 8.95329 79.2729 9.13662 79.4729 9.38996L79.5129 8.72996H80.3228V13.9599C80.3228 14.4532 80.2328 14.8799 80.0528 15.2399C79.8795 15.5999 79.6129 15.8766 79.2529 16.0699C78.8995 16.2632 78.4529 16.3599 77.9129 16.3599ZM77.8529 13.3099C78.2062 13.3099 78.5029 13.2199 78.7429 13.0399C78.9829 12.8599 79.1662 12.6199 79.2929 12.3199C79.4195 12.0199 79.4829 11.6933 79.4829 11.3399C79.4829 10.9733 79.4195 10.6466 79.2929 10.3599C79.1729 10.0733 78.9929 9.84662 78.7529 9.67995C78.5129 9.51329 78.2095 9.42995 77.8429 9.42995C77.4629 9.42995 77.1562 9.51662 76.9229 9.68995C76.6962 9.86328 76.5296 10.0966 76.4229 10.3899C76.3229 10.6833 76.2729 11.0099 76.2729 11.3699C76.2729 11.7433 76.3262 12.0766 76.4329 12.3699C76.5396 12.6633 76.7095 12.8933 76.9429 13.0599C77.1762 13.2266 77.4795 13.3099 77.8529 13.3099ZM87.1032 14.0799C86.6566 14.0799 86.2333 14.0199 85.8333 13.8999C85.4399 13.7732 85.1033 13.5699 84.8233 13.2899C84.5433 13.0033 84.3533 12.6233 84.2533 12.1499H85.1633C85.2566 12.4499 85.4066 12.6833 85.6133 12.8499C85.8266 13.0166 86.0699 13.1333 86.3433 13.1999C86.6166 13.2599 86.8899 13.2899 87.1632 13.2899C87.4366 13.2899 87.6899 13.2532 87.9232 13.1799C88.1632 13.0999 88.3566 12.9733 88.5032 12.7999C88.6566 12.6266 88.7332 12.4033 88.7332 12.1299C88.7332 11.9166 88.6932 11.7433 88.6132 11.6099C88.5399 11.4766 88.4332 11.3699 88.2932 11.2899C88.1599 11.2033 87.9999 11.1333 87.8132 11.0799C87.5666 10.9999 87.3032 10.9333 87.0232 10.8799C86.7432 10.8266 86.4666 10.7633 86.1933 10.6899C85.9266 10.6166 85.6766 10.5233 85.4433 10.4099C85.3166 10.3433 85.1933 10.2633 85.0733 10.1699C84.9599 10.0699 84.8599 9.95662 84.7733 9.82995C84.6933 9.69662 84.6266 9.54662 84.5733 9.37996C84.5266 9.21329 84.5033 9.02996 84.5033 8.82996C84.5033 8.52996 84.5499 8.26997 84.6433 8.04997C84.7366 7.82997 84.8633 7.64331 85.0233 7.48997C85.1833 7.33664 85.3699 7.21331 85.5833 7.11998C85.7966 7.02665 86.0233 6.95998 86.2633 6.91998C86.5099 6.87331 86.7566 6.84998 87.0032 6.84998C87.4099 6.84998 87.7899 6.91331 88.1432 7.03998C88.5032 7.15998 88.7999 7.35664 89.0332 7.62997C89.2732 7.9033 89.4032 8.2733 89.4232 8.73996H88.5732C88.5399 8.45996 88.4466 8.23997 88.2932 8.07997C88.1399 7.91997 87.9499 7.80664 87.7232 7.73997C87.4966 7.67331 87.2566 7.63997 87.0032 7.63997C86.8166 7.63997 86.6266 7.65664 86.4333 7.68997C86.2466 7.72331 86.0733 7.7833 85.9133 7.86997C85.7599 7.94997 85.6366 8.0633 85.5433 8.20997C85.4499 8.34997 85.4033 8.52996 85.4033 8.74996C85.4033 8.92329 85.4333 9.07663 85.4933 9.20996C85.5599 9.34329 85.6466 9.45662 85.7533 9.54995C85.8666 9.63662 85.9899 9.70995 86.1233 9.76995C86.4433 9.90328 86.7966 10.0033 87.1832 10.0699C87.5766 10.1299 87.9432 10.2199 88.2832 10.3399C88.4832 10.4066 88.6666 10.4899 88.8332 10.5899C88.9999 10.6899 89.1399 10.8066 89.2532 10.9399C89.3732 11.0733 89.4632 11.2266 89.5232 11.3999C89.5899 11.5666 89.6232 11.7566 89.6232 11.9699C89.6232 12.3566 89.5566 12.6866 89.4232 12.9599C89.2899 13.2266 89.1066 13.4432 88.8732 13.6099C88.6399 13.7766 88.3699 13.8966 88.0632 13.9699C87.7632 14.0432 87.4432 14.0799 87.1032 14.0799ZM92.8566 14.0599C92.3033 14.0599 91.9133 13.9099 91.6866 13.6099C91.4666 13.3099 91.3566 12.8833 91.3566 12.3299V9.47995H90.4966V8.72996H91.3566V7.14998H92.2066V8.72996H93.8266V9.47995H92.2066V12.2199C92.2066 12.4199 92.2233 12.6033 92.2566 12.7699C92.29 12.9299 92.36 13.0599 92.4666 13.1599C92.5733 13.2532 92.7333 13.3032 92.9466 13.3099C93.1 13.3099 93.2333 13.2832 93.3466 13.2299C93.4666 13.1766 93.5666 13.1133 93.6466 13.0399L94.0166 13.6599C93.9033 13.7532 93.7833 13.8299 93.6566 13.8899C93.5366 13.9499 93.41 13.9932 93.2766 14.0199C93.15 14.0466 93.01 14.0599 92.8566 14.0599ZM96.5314 14.0599C96.2914 14.0599 96.0581 14.0299 95.8314 13.9699C95.6114 13.9032 95.4114 13.8066 95.2314 13.6799C95.0581 13.5466 94.9181 13.3832 94.8114 13.1899C94.7114 12.9899 94.6615 12.7599 94.6615 12.4999C94.6615 12.1999 94.7148 11.9466 94.8214 11.7399C94.9348 11.5333 95.0848 11.3699 95.2714 11.2499C95.4581 11.1299 95.6748 11.0433 95.9214 10.9899C96.1681 10.9366 96.4248 10.9099 96.6914 10.9099H98.2414C98.2414 10.6099 98.1981 10.3499 98.1114 10.1299C98.0314 9.90995 97.8981 9.73995 97.7114 9.61995C97.5248 9.49329 97.2781 9.42995 96.9714 9.42995C96.7848 9.42995 96.6114 9.44995 96.4514 9.48995C96.2914 9.52995 96.1548 9.59329 96.0414 9.67995C95.9281 9.76662 95.8448 9.88328 95.7914 10.0299H94.8814C94.9281 9.78995 95.0181 9.58662 95.1514 9.41995C95.2914 9.24662 95.4581 9.10662 95.6514 8.99996C95.8514 8.88663 96.0648 8.80329 96.2914 8.74996C96.5181 8.69663 96.7448 8.66996 96.9714 8.66996C97.7314 8.66996 98.2714 8.89329 98.5914 9.33996C98.9114 9.78662 99.0714 10.3899 99.0714 11.1499V13.9999H98.3614L98.3114 13.3299C98.1647 13.5299 97.9881 13.6832 97.7814 13.7899C97.5748 13.8966 97.3614 13.9666 97.1414 13.9999C96.9281 14.0399 96.7248 14.0599 96.5314 14.0599ZM96.6114 13.3099C96.9448 13.3099 97.2314 13.2566 97.4714 13.1499C97.7181 13.0366 97.9081 12.8733 98.0414 12.6599C98.1747 12.4466 98.2414 12.1866 98.2414 11.8799V11.6199H97.3114C97.0914 11.6199 96.8748 11.6233 96.6614 11.6299C96.4481 11.6366 96.2548 11.6633 96.0814 11.7099C95.9081 11.7566 95.7681 11.8366 95.6614 11.9499C95.5614 12.0633 95.5114 12.2266 95.5114 12.4399C95.5114 12.6399 95.5614 12.8033 95.6614 12.9299C95.7681 13.0566 95.9048 13.1533 96.0714 13.2199C96.2448 13.2799 96.4248 13.3099 96.6114 13.3099ZM100.388 13.9999V8.72996H101.208L101.248 9.54995C101.382 9.34329 101.535 9.17662 101.708 9.04996C101.888 8.92329 102.085 8.82996 102.298 8.76996C102.518 8.7033 102.755 8.66996 103.008 8.66996C103.055 8.66996 103.098 8.66996 103.138 8.66996C103.185 8.66996 103.232 8.66996 103.278 8.66996V9.46995H102.968C102.555 9.46995 102.218 9.55995 101.958 9.73995C101.705 9.91328 101.522 10.1499 101.408 10.4499C101.295 10.7433 101.238 11.0699 101.238 11.4299V13.9999H100.388Z" fill="white"/>
<defs>
<linearGradient id="paint0_linear_1_870" x1="275.793" y1="10.0002" x2="0.000328771" y2="10.0002" gradientUnits="userSpaceOnUse">
<stop stop-color="#7519FF"/>
<stop offset="1" stop-color="#9C59FF"/>
</linearGradient>
<linearGradient id="paint1_linear_1_870" x1="20.5" y1="10" x2="0.000298022" y2="10.3999" gradientUnits="userSpaceOnUse">
<stop stop-color="#FE7D0D"/>
<stop offset="1" stop-color="#FFE5AB"/>
</linearGradient>
<clipPath id="clip0_1_870">
<rect width="13.7499" height="14.3749" fill="white" transform="translate(18.6241 3.62506)"/>
</clipPath>
</defs>
</svg>
